<svg xmlns="http://www.w3.org/2000/svg" width="512" height="512" viewBox="0 0 512 512"><mask id="k1" maskUnits="userSpaceOnUse" x="0" y="0" width="48" height="48"><rect x="0" y="0" width="48" height="48" fill="#000000"/><path d="M0 0H48V48H0Z" fill="#FFFFFF"/><path d="M6 6H42V42H6Z" fill="#000000"/><g transform="translate(6 6)"><path d="M3 4.5L3.208 5.464L3.417 6.339L3.625 7.134L3.833 7.856L4.042 8.512L4.25 9.107L4.458 9.648L4.667 10.139L4.875 10.585L5.083 10.99L5.292 11.358L5.5 11.693L5.708 11.996L5.917 12.272L6.125 12.522L6.333 12.75L6.542 12.956L6.75 13.144L6.958 13.314L7.167 13.469L7.375 13.609L7.583 13.737L7.792 13.853L8 13.958L8.208 14.054L8.417 14.141L8.625 14.22L8.833 14.291L9.042 14.356L9.25 14.415L9.458 14.469L9.667 14.518L9.875 14.562L10.083 14.602L10.292 14.639L10.5 14.672L10.708 14.702L10.917 14.729L11.125 14.754L11.333 14.777L11.542 14.797L11.75 14.816L11.958 14.833L12.167 14.848L12.375 14.862L12.583 14.875L12.792 14.886L13 14.897L13.208 14.906L13.417 14.915L13.625 14.923L13.833 14.93L14.042 14.936L14.25 14.942L14.458 14.947L14.667 14.952L14.875 14.957L15.083 14.961L15.292 14.964L15.5 14.967L15.708 14.97L15.917 14.973L16.125 14.976L16.333 14.978L16.542 14.98L16.75 14.982L16.958 14.983L17.167 14.985L17.375 14.986L17.583 14.988L17.792 14.989L18 15L33 15L33 21L18 21L17.792 21.011L17.583 21.012L17.375 21.014L17.167 21.015L16.958 21.017L16.75 21.018L16.542 21.02L16.333 21.022L16.125 21.024L15.917 21.027L15.708 21.03L15.5 21.033L15.292 21.036L15.083 21.039L14.875 21.043L14.667 21.048L14.458 21.053L14.25 21.058L14.042 21.064L13.833 21.07L13.625 21.077L13.417 21.085L13.208 21.094L13 21.103L12.792 21.114L12.583 21.125L12.375 21.138L12.167 21.152L11.958 21.167L11.75 21.184L11.542 21.203L11.333 21.223L11.125 21.246L10.917 21.271L10.708 21.298L10.5 21.328L10.292 21.361L10.083 21.398L9.875 21.438L9.667 21.482L9.458 21.531L9.25 21.585L9.042 21.644L8.833 21.709L8.625 21.78L8.417 21.859L8.208 21.946L8 22.042L7.792 22.147L7.583 22.263L7.375 22.391L7.167 22.531L6.958 22.686L6.75 22.856L6.542 23.044L6.333 23.25L6.125 23.478L5.917 23.728L5.708 24.004L5.5 24.307L5.292 24.642L5.083 25.01L4.875 25.415L4.667 25.861L4.458 26.352L4.25 26.893L4.042 27.488L3.833 28.144L3.625 28.866L3.417 29.661L3.208 30.536L3 31.5Z" fill="#FFFFFF"/></g><g transform="translate(6 6)"><path d="M18 28.8L15.6 18L20.4 18Z" fill="#FFFFFF"/></g><g transform="translate(6 6)"><path d="M18 7.2L20.4 18L15.6 18Z" fill="#FFFFFF"/></g><g transform="translate(6 6)"><path d="M23.957 23.957L16.939 19.061L19.061 16.939Z" fill="#FFFFFF"/></g><g transform="translate(6 6)"><path d="M12.043 23.957L16.939 16.939L19.061 19.061Z" fill="#FFFFFF"/></g><g transform="translate(6 6)"><path d="M12.043 12.043L19.061 16.939L16.939 19.061Z" fill="#FFFFFF"/></g><g transform="translate(6 6)"><path d="M23.957 12.043L19.061 19.061L16.939 16.939Z" fill="#FFFFFF"/></g></mask><g transform="translate(0 0) scale(10.666666666666666)"><rect x="0" y="0" width="48" height="48" fill="#404040" mask="url(#k1)"/></g></svg>